# xmcd
#
# Track frame offsets:
# 150
# 18566
# 39080
# 62137
# 82162
# 104542
# 121926
# 139898
# 157880
# 175564
# 198908
# 217209
#
# Disc length: 3151 seconds
#
# Revision: 0
# Processed by: cddbd v1.4PL0 Copyright (c) Steve Scherf et al.
# Submitted via: Audion 3.0.2 (http://www.panic.com/audion/)
#
DISCID=a30c4d0c
DTITLE=DNTEL - Early Works For Me If It Works For You
DYEAR=1900
DGENRE=
TTITLE0=Loneliness Is Having No One To Miss
TTITLE1=High Horses Theme
TTITLE2=Pliesex Sielking
TTITLE3=Termites In The Bathtub
TTITLE4=Fort Instructions
TTITLE5=Curtains
TTITLE6=Tybalt 60
TTITLE7=Danny Loves Experimental Electronics
TTITLE8=Sky Pointing
TTITLE9=Casuals
TTITLE10=Wind Let Me Down Again
TTITLE11=Jewel States, "The Door Borders"
EXTD=
EXTT0=
EXTT1=
EXTT2=
EXTT3=
EXTT4=
EXTT5=
EXTT6=
EXTT7=
EXTT8=
EXTT9=
EXTT10=
EXTT11=
PLAYORDER=
